-
 
http://www.Speed. Cd       the fast  and The Hottest Private Tracker on the net 
http://www.Speed. Cd

Please Seed back to make the speed Faster!!
 ............ NFO .............
-
 
http://www.Speed. Cd                                                                                                     
       
     
     
       
       
     
     
                                         
                                         
                EXVID                    
                                         
         
                                         
         Filled the Archives             
                                         
         
                                         
                With:                    
                                         
         
                                         
                                    
     E240                           
                                    
     SP               (C) 2009      
                                         
     
     
     
                                                                                  
                                                                                   
               Sahara.1943.iNTERNAL.DVDRip.XviD-EXViDiNT                            
                                                                                   
                                                                                  
     
                                                                                               
EXViD aims to iNTERNAL those releases which have been lost in the archives.
EXViD aims to PRE non-internal releases which have poor sources and are likely skipped by others. 
http://www.imdb.com/title/tt0036323/
Subtitles: EN, FR, IT, ES, NL, AR, BG, CZ, DA, FI, GR, HE, HI, HU, IS, NO, PL, PT, SV, TR
Date: 2013.04

Director: Zoltan Korda

Genres: Action |  Drama |  War

Plot:
Sergeant Joe Gunn and his tank crew pick up five British soldiers, a Frenchman and a
Sudanese man with an Italian prisoner crossing the Libyan Desert to rejoin their command
after the fall of Tobruk. They and the Germans are greatly in need of water.

Cast:
Humphrey Bogart 	 ... 	Sgt. Joe Gunn 
Bruce Bennett 	 ... 	 Waco Hoyt 
J. Carrol Naish 	 ... 	 Giuseppe 
Lloyd Bridges 	 ... 	 Fred Clarkson 
Rex Ingram 	 ... 	 Sgt. Major Tambul 
Richard Aherne 	 ... 	 Capt. Jason Halliday (as Richard Nugent) 
Dan Duryea 	 ... 	 Jimmy Doyle 
Carl Harbord 	 ... 	 Marty Williams 
Patrick O'Moore 	 ... 	 Osmond 'Ozzie' Bates 
Louis Mercier 	 ... 	 Jean Leroux, 'Frenchie' (as Louis T. Mercier) 
Guy Kingsford 	 ... 	 Peter Stegman 
Kurt Kreuger 	 ... 	 Capt. von Schletow (as Kurt Krueger) 
John Wengraf 	 ... 	 Maj. Von Falken

Stats:
Format                           : AVI
Format/Info                      : Audio Video Interleave
File size                        : 699 MiB
Duration                         : 1h 33mn
Overall bit rate                 : 1 043 Kbps
Writing application              : VirtualDubMod 1.5.10.2 (build 2540/release)
Writing library                  : VirtualDubMod build 2540/release

Video
ID                               : 0
Format                           : MPEG-4 Visual
Format profile                   : Advanced Simple@L5
Format settings, BVOP            : Yes
Format settings, QPel            : No
Format settings, GMC             : No warppoints
Format settings, Matrix          : Default (H.263)
Muxing mode                      : Packed bitstream
Codec ID                         : XVID
Codec ID/Hint                    : XviD
Duration                         : 1h 33mn
Bit rate                         : 948 Kbps
Width                            : 512 pixels
Height                           : 384 pixels
Display aspect ratio             : 4:3
Frame rate                       : 25.000 fps
Color space                      : YUV
Chroma subsampling               : 4:2:0
Bit depth                        : 8 bits
Scan type                        : Progressive
Bits/(Pixel*Frame)               : 0.193
Stream size                      : 635 MiB (91%)
Writing library                  : XviD 64

Audio
ID                               : 1
Format                           : MPEG Audio
Format version                   : Version 1
Format profile                   : Layer 3
Codec ID                         : 55
Codec ID/Hint                    : MP3
Duration                         : 1h 33mn
Bit rate mode                    : Variable
Bit rate                         : 81.8 Kbps
Minimum bit rate                 : 32.0 Kbps
Channel(s)                       : 1 channel
Sampling rate                    : 48.0 KHz
Stream size                      : 54.8 MiB (8%)
Alignment                        : Aligned on interleaves
Interleave, duration             : 24 ms (0.60 video frame)
Interleave, preload duration     : 225 ms
Writing library                  : LAME3.98r
Encoding settings                : -m m -V 4 -q 0 -lowpass 17.5 --vbr-new -b 32




Release notes:
enjoy!

Looking for:
75TB+ Archives
DUTCH/FLEMiSH Archives
                                                                                                    
Greets: CRBS EPiSODE FiCO FLS iLS KLASSiGER LiPSYNC MADE NODLABS RUNNER SPRiNTER      
   

                                                                    ASCII DONE BY XX^NFO 2oo9